<svg xmlns="http://www.w3.org/2000/svg" xmlns:xlink="http://www.w3.org/1999/xlink" fill="none" version="1.1" width="44" height="40" viewBox="0 0 44 40"><defs><mask id="master_svg0_34_00073" style="mask-type:alpha" maskUnits="userSpaceOnUse"><g><path d="M43.468,18.6892L23.9352,0.754813C22.839,-0.251604,21.1567,-0.251604,20.0605,0.754813L0.52972,18.6892C0.0329664,19.1465,-0.133079,19.8621,0.1114,20.492C0.355879,21.1219,0.960881,21.5373,1.63559,21.5384L3.56676,21.5384L3.56676,35.8974C3.56676,36.9855,3.99828,38.029,4.76639,38.7984C5.5345,39.5678,6.57628,40,7.66256,40L36.3332,40C37.4194,40,38.4612,39.5678,39.2293,38.7984C39.9974,38.029,40.429,36.9855,40.429,35.8974L40.429,21.5384L42.3622,21.5405C43.0378,21.5403,43.6441,21.1246,43.8887,20.4937C44.1334,19.8629,43.9664,19.1463,43.468,18.6892ZM12.2949,27.2184C11.4954,26.4174,11.4954,25.1189,12.2949,24.3179C12.679,23.9327,13.2003,23.7163,13.7438,23.7163C14.2873,23.7163,14.8086,23.9327,15.1927,24.3179C18.841,27.9716,24.7554,27.9716,28.4037,24.3179C29.2072,23.5405,30.4845,23.5517,31.2745,24.3429C32.0644,25.1342,32.0755,26.4136,31.2994,27.2184C26.0515,32.475,17.5429,32.475,12.2949,27.2184Z" fill-rule="evenodd" fill="#FFFFFF" fill-opacity="1"/></g></mask><filter id="master_svg1_34_00077" filterUnits="objectBoundingBox" color-interpolation-filters="sRGB" x="-60.44444274902344" y="-60.44444274902344" width="161.58888626098633" height="161.99999618530273"><feFlood flood-opacity="0" result="BackgroundImageFix"/><feBlend mode="normal" in="SourceGraphic" in2="BackgroundImageFix" result="shape"/><feGaussianBlur stdDeviation="15.11111068725586" result="effect1_foregroundBlur"/></filter></defs><g><g mask="url(#master_svg0_34_00073)"><g><path d="M43.468,18.6892L23.9352,0.754813C22.839,-0.251604,21.1567,-0.251604,20.0605,0.754813L0.52972,18.6892C0.0329664,19.1465,-0.133079,19.8621,0.1114,20.492C0.355879,21.1219,0.960881,21.5373,1.63559,21.5384L3.56676,21.5384L3.56676,35.8974C3.56676,36.9855,3.99828,38.029,4.76639,38.7984C5.5345,39.5678,6.57628,40,7.66256,40L36.3332,40C37.4194,40,38.4612,39.5678,39.2293,38.7984C39.9974,38.029,40.429,36.9855,40.429,35.8974L40.429,21.5384L42.3622,21.5405C43.0378,21.5403,43.6441,21.1246,43.8887,20.4937C44.1334,19.8629,43.9664,19.1463,43.468,18.6892ZM12.2949,27.2184C11.4954,26.4174,11.4954,25.1189,12.2949,24.3179C12.679,23.9327,13.2003,23.7163,13.7438,23.7163C14.2873,23.7163,14.8086,23.9327,15.1927,24.3179C18.841,27.9716,24.7554,27.9716,28.4037,24.3179C29.2072,23.5405,30.4845,23.5517,31.2745,24.3429C32.0644,25.1342,32.0755,26.4136,31.2994,27.2184C26.0515,32.475,17.5429,32.475,12.2949,27.2184Z" fill-rule="evenodd" fill="#424FF7" fill-opacity="1"/></g><g filter="url(#master_svg1_34_00077)"><ellipse cx="8.350000381469727" cy="44.55555534362793" rx="20.350000381469727" ry="20.55555534362793" fill="#4BF0CA" fill-opacity="1"/></g></g></g></svg>