<?xml version="1.0" encoding="UTF-8"?>
<svg width="48px" height="48px" viewBox="0 0 48 48" version="1.1" xmlns="http://www.w3.org/2000/svg" xmlns:xlink="http://www.w3.org/1999/xlink">
    <title>tabbar_icon_xx_nor</title>
    <defs>
        <rect id="path-1" x="0" y="0" width="48" height="48"></rect>
        <path d="M33.5911602,0 L6.18784532,0 C2.6519337,0 0,2.80000003 0,6.20000001 L0,33.8 C0,37.2 2.6519337,40 6.18784532,40 L33.8121547,40 C37.1270718,40 40,37.2 40,33.8 L40,6.20000001 C39.7790055,2.80000003 37.1270718,0 33.5911602,0 Z M9.28176795,30.8 C8.39779003,30.8 7.51381217,30.2 7.51381217,29.2 C7.51381217,28.2 8.17679559,27.6 9.28176795,27.6 C10.3867403,27.6 11.0497237,28.4 11.0497237,29.2 C11.0497237,30 10.3867403,30.8 9.28176795,30.8 Z M9.28176795,21.6 C8.39779003,21.6 7.51381217,21 7.51381217,20 C7.51381217,19 8.17679559,18.4 9.28176795,18.4 C10.3867403,18.4 11.0497237,19.2 11.0497237,20 C11.0497237,20.8 10.3867403,21.6 9.28176795,21.6 Z M9.28176795,12.2 C8.39779003,12.2 7.51381217,11.6 7.51381217,10.6 C7.51381217,9.60000004 8.17679559,8.99999999 9.28176795,8.99999999 C10.3867403,8.99999999 11.0497237,9.80000001 11.0497237,10.8 C11.0497237,11.8 10.3867403,12.2 9.28176795,12.2 Z M30.2762431,30.8 L16.3535911,30.8 C15.4696132,30.8 14.5856354,30.2 14.5856354,29.2 C14.5856354,28.2 15.2486188,27.6 16.3535911,27.6 L30.2762431,27.6 C31.160221,27.6 32.0441989,28.2 32.0441989,29.2 C32.0441989,30.2 31.3812155,30.8 30.2762431,30.8 Z M30.2762431,21.6 L16.3535911,21.6 C15.4696132,21.6 14.5856354,21 14.5856354,20 C14.5856354,19 15.2486188,18.4 16.3535911,18.4 L30.2762431,18.4 C31.160221,18.4 32.0441989,19 32.0441989,20 C32.0441989,21 31.3812155,21.6 30.2762431,21.6 Z M30.2762431,12.2 L16.3535911,12.2 C15.4696132,12.2 14.5856354,11.6 14.5856354,10.6 C14.5856354,9.60000004 15.2486188,8.99999999 16.3535911,8.99999999 L30.2762431,8.99999999 C31.160221,8.99999999 32.0441989,9.59999999 32.0441989,10.6 C32.0441989,11.6000001 31.3812155,12.2 30.2762431,12.2 Z" id="path-3"></path>
    </defs>
    <g id="推送" stroke="none" stroke-width="1" fill="none" fill-rule="evenodd">
        <g id="安卓_toast提示" transform="translate(-600, -1514)">
            <g id="编组-12" transform="translate(0, 1490)">
                <g id="容器-107" transform="translate(598, 24)">
                    <g id="容器-108" transform="translate(2, 0)">
                        <mask id="mask-2" fill="white">
                            <use xlink:href="#path-1"></use>
                        </mask>
                        <g fill-rule="nonzero"></g>
                        <g id="编组" mask="url(#mask-2)">
                            <g transform="translate(4, 4)" id="椭圆形">
                                <mask id="mask-4" fill="white">
                                    <use xlink:href="#path-3"></use>
                                </mask>
                                <use id="蒙版" fill="#ADC1D1" fill-rule="nonzero" xlink:href="#path-3"></use>
                            </g>
                        </g>
                    </g>
                </g>
            </g>
        </g>
    </g>
</svg>