<svg xmlns="http://www.w3.org/2000/svg" xmlns:xlink="http://www.w3.org/1999/xlink" fill="none" version="1.1" width="48.5" height="48" viewBox="0 0 48.5 48"><defs><mask id="master_svg0_34_00064" style="mask-type:alpha" maskUnits="userSpaceOnUse"><g><rect x="0.5" y="0" width="48" height="48" rx="0" fill="#FFFFFF" fill-opacity="1"/></g></mask><mask id="master_svg1_34_00055" style="mask-type:alpha" maskUnits="userSpaceOnUse"><g><path d="M38.0912,4L10.687850000000001,4C7.15193,4,4.5,6.8,4.5,10.2L4.5,37.8C4.5,41.2,7.15193,44,10.687850000000001,44L38.3122,44C41.6271,44,44.5,41.2,44.5,37.8L44.5,10.2C44.279,6.8,41.6271,4,38.0912,4ZM12.013670000000001,14.6C12.013670000000001,15.6,12.89765,16.2,13.78163,16.2C14.8866,16.2,15.5496,15.8,15.5496,14.8C15.5496,13.8,14.8866,13,13.78163,13C12.67665,13,12.013670000000001,13.6,12.013670000000001,14.6ZM20.8534,16.2L34.7761,16.2C35.881,16.2,36.544,15.6,36.544,14.6C36.544,13.6,35.66,13,34.7761,13L20.8534,13C19.7484,13,19.0854,13.6,19.0854,14.6C19.0854,15.6,19.9694,16.2,20.8534,16.2ZM12.013670000000001,24C12.013670000000001,25,12.89765,25.6,13.78163,25.6C14.8866,25.6,15.5496,24.8,15.5496,24C15.5496,23.2,14.8866,22.4,13.78163,22.4C12.67665,22.4,12.013670000000001,23,12.013670000000001,24ZM20.8534,25.6L34.7761,25.6C35.881,25.6,36.544,25,36.544,24C36.544,23,35.66,22.4,34.7761,22.4L20.8534,22.4C19.7484,22.4,19.0854,23,19.0854,24C19.0854,25,19.9694,25.6,20.8534,25.6ZM12.013670000000001,33.2C12.013670000000001,34.2,12.89765,34.8,13.78163,34.8C14.8866,34.8,15.5496,34,15.5496,33.2C15.5496,32.4,14.8866,31.6,13.78163,31.6C12.67665,31.6,12.013670000000001,32.2,12.013670000000001,33.2ZM20.8534,34.8L34.7761,34.8C35.881,34.8,36.544,34.2,36.544,33.2C36.544,32.2,35.66,31.6,34.7761,31.6L20.8534,31.6C19.7484,31.6,19.0854,32.2,19.0854,33.2C19.0854,34.2,19.9694,34.8,20.8534,34.8Z" fill-rule="evenodd" fill="#FFFFFF" fill-opacity="1"/></g></mask><filter id="master_svg2_34_00054" filterUnits="objectBoundingBox" color-interpolation-filters="sRGB" x="-60.44444274902344" y="-60.44444274902344" width="161.58888626098633" height="161.99999618530273"><feFlood flood-opacity="0" result="BackgroundImageFix"/><feBlend mode="normal" in="SourceGraphic" in2="BackgroundImageFix" result="shape"/><feGaussianBlur stdDeviation="15.11111068725586" result="effect1_foregroundBlur"/></filter></defs><g><g mask="url(#master_svg0_34_00064)"><g><g mask="url(#master_svg1_34_00055)"><g><path d="M38.0912,4L10.687850000000001,4C7.15193,4,4.5,6.8,4.5,10.2L4.5,37.8C4.5,41.2,7.15193,44,10.687850000000001,44L38.3122,44C41.6271,44,44.5,41.2,44.5,37.8L44.5,10.2C44.279,6.8,41.6271,4,38.0912,4ZM12.013670000000001,14.6C12.013670000000001,15.6,12.89765,16.2,13.78163,16.2C14.8866,16.2,15.5496,15.8,15.5496,14.8C15.5496,13.8,14.8866,13,13.78163,13C12.67665,13,12.013670000000001,13.6,12.013670000000001,14.6ZM20.8534,16.2L34.7761,16.2C35.881,16.2,36.544,15.6,36.544,14.6C36.544,13.6,35.66,13,34.7761,13L20.8534,13C19.7484,13,19.0854,13.6,19.0854,14.6C19.0854,15.6,19.9694,16.2,20.8534,16.2ZM12.013670000000001,24C12.013670000000001,25,12.89765,25.6,13.78163,25.6C14.8866,25.6,15.5496,24.8,15.5496,24C15.5496,23.2,14.8866,22.4,13.78163,22.4C12.67665,22.4,12.013670000000001,23,12.013670000000001,24ZM20.8534,25.6L34.7761,25.6C35.881,25.6,36.544,25,36.544,24C36.544,23,35.66,22.4,34.7761,22.4L20.8534,22.4C19.7484,22.4,19.0854,23,19.0854,24C19.0854,25,19.9694,25.6,20.8534,25.6ZM12.013670000000001,33.2C12.013670000000001,34.2,12.89765,34.8,13.78163,34.8C14.8866,34.8,15.5496,34,15.5496,33.2C15.5496,32.4,14.8866,31.6,13.78163,31.6C12.67665,31.6,12.013670000000001,32.2,12.013670000000001,33.2ZM20.8534,34.8L34.7761,34.8C35.881,34.8,36.544,34.2,36.544,33.2C36.544,32.2,35.66,31.6,34.7761,31.6L20.8534,31.6C19.7484,31.6,19.0854,32.2,19.0854,33.2C19.0854,34.2,19.9694,34.8,20.8534,34.8Z" fill-rule="evenodd" fill="#424FF7" fill-opacity="1"/></g><g filter="url(#master_svg2_34_00054)"><ellipse cx="11.850000381469727" cy="48.55555534362793" rx="20.350000381469727" ry="20.55555534362793" fill="#4BF0CA" fill-opacity="1"/></g></g></g></g></g></svg>