<svg xmlns="http://www.w3.org/2000/svg" xmlns:xlink="http://www.w3.org/1999/xlink" fill="none" version="1.1" width="48" height="48" viewBox="0 0 48 48"><defs><mask id="master_svg0_34_00040" style="mask-type:alpha" maskUnits="userSpaceOnUse"><g><path d="M43.6774,12.45339C44.2241,13.00107,44.4998,13.64877,44.4998,14.3917C44.4998,15.1347,44.2241,15.7633,43.6774,16.2872L36.0197,23.9595C35.473,24.5072,34.8313,24.7834,34.104,24.7834C33.3768,24.7834,32.7398,24.5072,32.1884,23.9595L24.5402,16.2919C24.0173,15.7681,23.7559,15.1394,23.7559,14.3965C23.7559,13.65353,24.0173,13.00583,24.5402,12.45815L32.197900000000004,4.785808C32.7446,4.261936,33.3863,4,34.113600000000005,4C34.8408,4,35.4778,4.261936,36.0292,4.785808L43.6774,12.45339ZM17.3437,28.5363C18.0567,28.5363,18.6652,28.7839,19.1738,29.2792C19.6824,29.7745,19.9343,30.3793,19.9343,31.0937L19.9343,41.4426C19.9343,42.1569,19.6824,42.7618,19.1738,43.2571C18.6652,43.7524,18.0567,44,17.3437,44L7.05258,44C6.33957,44,5.7358899999999995,43.7524,5.241533,43.2571C4.747178,42.7618,4.5,42.1569,4.5,41.4426L4.5,31.0889Q4.5,30.0174,5.241533,29.2744Q5.98307,28.5315,7.05258,28.5315L17.3437,28.5315L17.3437,28.5363ZM37.9594,28.5363Q39.0289,28.5363,39.7704,29.2792Q40.512,30.0221,40.512,31.0937L40.512,41.4426C40.512,42.1569,40.2648,42.7618,39.7704,43.2571C39.2761,43.7524,38.6724,44,37.9594,44L27.6682,44C26.9552,44,26.3468,43.7524,25.8382,43.2571C25.3296,42.7618,25.0776,42.1569,25.0776,41.4426L25.0776,31.0889C25.0776,30.3746,25.3296,29.7697,25.8382,29.2744C26.3468,28.7791,26.9552,28.5315,27.6682,28.5315L37.9594,28.5315L37.9594,28.5363ZM17.343899999999998,7.919560000000001C18.0569,7.919560000000001,18.665300000000002,8.167200000000001,19.1739,8.6625C19.682499999999997,9.1578,19.9345,9.76263,19.9345,10.477L19.9345,20.783C19.9345,21.4974,19.682499999999997,22.107,19.1739,22.6165C18.665300000000002,23.1261,18.0569,23.3785,17.343899999999998,23.3785L7.052709999999999,23.3785C6.3397,23.3785,5.73602,23.1261,5.241662,22.6165C4.747307,22.107,4.50488281,21.4974,4.50488281,20.783L4.50488281,10.477Q4.50488281,9.40545,5.246416,8.6625Q5.98795,7.919560000000001,7.05747,7.919560000000001L7.05747,7.919560000000001C7.05747,7.92432,17.343899999999998,7.919560000000001,17.343899999999998,7.919560000000001Z" fill-rule="evenodd" fill="#FFFFFF" fill-opacity="1"/></g></mask><filter id="master_svg1_34_00046" filterUnits="objectBoundingBox" color-interpolation-filters="sRGB" x="-60.44444274902344" y="-60.44444274902344" width="161.58888626098633" height="161.99999618530273"><feFlood flood-opacity="0" result="BackgroundImageFix"/><feBlend mode="normal" in="SourceGraphic" in2="BackgroundImageFix" result="shape"/><feGaussianBlur stdDeviation="15.11111068725586" result="effect1_foregroundBlur"/></filter></defs><g><g><g mask="url(#master_svg0_34_00040)"><g><path d="M43.6774,12.45339C44.2241,13.00107,44.4998,13.64877,44.4998,14.3917C44.4998,15.1347,44.2241,15.7633,43.6774,16.2872L36.0197,23.9595C35.473,24.5072,34.8313,24.7834,34.104,24.7834C33.3768,24.7834,32.7398,24.5072,32.1884,23.9595L24.5402,16.2919C24.0173,15.7681,23.7559,15.1394,23.7559,14.3965C23.7559,13.65353,24.0173,13.00583,24.5402,12.45815L32.197900000000004,4.785808C32.7446,4.261936,33.3863,4,34.113600000000005,4C34.8408,4,35.4778,4.261936,36.0292,4.785808L43.6774,12.45339ZM17.3437,28.5363C18.0567,28.5363,18.6652,28.7839,19.1738,29.2792C19.6824,29.7745,19.9343,30.3793,19.9343,31.0937L19.9343,41.4426C19.9343,42.1569,19.6824,42.7618,19.1738,43.2571C18.6652,43.7524,18.0567,44,17.3437,44L7.05258,44C6.33957,44,5.7358899999999995,43.7524,5.241533,43.2571C4.747178,42.7618,4.5,42.1569,4.5,41.4426L4.5,31.0889Q4.5,30.0174,5.241533,29.2744Q5.98307,28.5315,7.05258,28.5315L17.3437,28.5315L17.3437,28.5363ZM37.9594,28.5363Q39.0289,28.5363,39.7704,29.2792Q40.512,30.0221,40.512,31.0937L40.512,41.4426C40.512,42.1569,40.2648,42.7618,39.7704,43.2571C39.2761,43.7524,38.6724,44,37.9594,44L27.6682,44C26.9552,44,26.3468,43.7524,25.8382,43.2571C25.3296,42.7618,25.0776,42.1569,25.0776,41.4426L25.0776,31.0889C25.0776,30.3746,25.3296,29.7697,25.8382,29.2744C26.3468,28.7791,26.9552,28.5315,27.6682,28.5315L37.9594,28.5315L37.9594,28.5363ZM17.343899999999998,7.919560000000001C18.0569,7.919560000000001,18.665300000000002,8.167200000000001,19.1739,8.6625C19.682499999999997,9.1578,19.9345,9.76263,19.9345,10.477L19.9345,20.783C19.9345,21.4974,19.682499999999997,22.107,19.1739,22.6165C18.665300000000002,23.1261,18.0569,23.3785,17.343899999999998,23.3785L7.052709999999999,23.3785C6.3397,23.3785,5.73602,23.1261,5.241662,22.6165C4.747307,22.107,4.50488281,21.4974,4.50488281,20.783L4.50488281,10.477Q4.50488281,9.40545,5.246416,8.6625Q5.98795,7.919560000000001,7.05747,7.919560000000001L7.05747,7.919560000000001C7.05747,7.92432,17.343899999999998,7.919560000000001,17.343899999999998,7.919560000000001Z" fill-rule="evenodd" fill="#424FF7" fill-opacity="1"/></g><g filter="url(#master_svg1_34_00046)"><ellipse cx="8.850000381469727" cy="47.55555534362793" rx="20.350000381469727" ry="20.55555534362793" fill="#4BF0CA" fill-opacity="1"/></g></g></g></g></svg>