<?xml version="1.0" encoding="UTF-8"?>
<svg width="48px" height="48px" viewBox="0 0 48 48" version="1.1" xmlns="http://www.w3.org/2000/svg" xmlns:xlink="http://www.w3.org/1999/xlink">
    <title>tabbar_icon_jcgn_nor</title>
    <defs>
        <path d="M23.9351747,0.754813289 L43.4680497,18.689199 C43.9663533,19.1462621 44.1334171,19.8628611 43.8887432,20.4937107 C43.6440693,21.1245603 43.0378492,21.5402504 42.3621835,21.5404853 L40.4289654,21.538434 L40.4289654,35.8974298 C40.4289654,36.985499 39.9974448,38.0290038 39.2293331,38.798385 C38.4612214,39.5677662 37.4194383,40 36.3331644,40 L7.66255725,40 C6.57628327,40 5.53450025,39.5677662 4.76638857,38.798385 C3.99827688,38.0290038 3.56675623,36.985499 3.56675624,35.8974298 L3.56675624,21.538434 L1.63558605,21.538434 C0.96088086,21.5372797 0.355879387,21.1219275 0.111400203,20.4920334 C-0.133078982,19.8621393 0.032966358,19.1465327 0.529719773,18.689199 L20.0605469,0.754813289 C21.1566765,-0.25160443 22.8390451,-0.25160443 23.9351747,0.754813289 Z M12.2949082,24.3179253 C11.4954448,25.1189519 11.4954448,26.417416 12.2949082,27.2184425 C17.5428836,32.4750127 26.0514496,32.4750127 31.2994249,27.2184425 C32.0755221,26.4135615 32.0644228,25.134163 31.2744784,24.3429131 C30.484534,23.5516632 29.2072466,23.5405455 28.4036936,24.3179253 C24.7553623,27.9715589 18.8410187,27.9715589 15.1926874,24.3179253 C14.8085663,23.9327411 14.2873295,23.7163108 13.7437978,23.7163108 C13.2002661,23.7163108 12.6790293,23.9327411 12.2949082,24.3179253 L12.2949082,24.3179253 Z" id="path-1"></path>
    </defs>
    <g id="推送" stroke="none" stroke-width="1" fill="none" fill-rule="evenodd">
        <g id="安卓_高级功能" transform="translate(-103, -1518)">
            <g id="编组-12" transform="translate(0, 1490)">
                <g id="编组-11" transform="translate(103, 28)">
                    <g id="椭圆形" transform="translate(2, 4)">
                        <mask id="mask-2" fill="white">
                            <use xlink:href="#path-1"></use>
                        </mask>
                        <use id="蒙版" fill="#ADC1D1" fill-rule="nonzero" xlink:href="#path-1"></use>
                    </g>
                </g>
            </g>
        </g>
    </g>
</svg>