<?xml version="1.0" encoding="UTF-8"?>
<svg width="48px" height="48px" viewBox="0 0 48 48" version="1.1" xmlns="http://www.w3.org/2000/svg" xmlns:xlink="http://www.w3.org/1999/xlink">
    <title>tabbar_icon_gjgn_nor</title>
    <defs>
        <path d="M12.8437314,3.91951423 C13.5567439,3.91951423 14.1651812,4.16716276 14.6737968,4.66245982 C15.1824124,5.15775688 15.4343434,5.76259078 15.4343434,6.47696154 L15.4343434,16.7829504 C15.4343434,17.4973211 15.1824124,18.1069175 14.6737968,18.616502 C14.1651812,19.1260864 13.5567439,19.3784974 12.8437314,19.3784974 L2.55258467,19.3784974 C1.83957219,19.3784974 1.23588829,19.1260864 0.741532977,18.616502 C0.247177659,18.1069175 0.00475341652,17.4973211 0.00475341652,16.7829504 L0.00475341652,6.47696154 C0.00475341652,5.76259078 0.251931075,5.15775688 0.746286393,4.66245982 C1.24064171,4.16716276 1.84432561,3.91951423 2.55733809,3.91951423 C2.55258467,3.9242767 12.8437314,3.91951423 12.8437314,3.91951423 Z M12.8437314,24.5362543 C13.5567439,24.5362543 14.1651812,24.7839028 14.6737968,25.2791999 C15.1824124,25.774497 15.4343434,26.3793309 15.4343434,27.0937016 L15.4343434,37.4425527 C15.4343434,38.1569234 15.1824124,38.7617574 14.6737968,39.2570544 C14.1651812,39.7523515 13.5567439,40 12.8437314,40 L2.55258467,40 C1.83957219,40 1.23588829,39.7523515 0.741532977,39.2570544 C0.247177659,38.7617574 0,38.1569234 0,37.4425527 L0,27.0889392 C0,26.3745684 0.247177659,25.7697345 0.741532977,25.2744374 C1.23588829,24.7791404 1.83957219,24.5314918 2.55258467,24.5314918 L12.8437314,24.5314918 L12.8437314,24.5362543 Z M33.4592989,24.5362543 C34.1723113,24.5362543 34.7759952,24.7839028 35.2703506,25.2791999 C35.7647059,25.774497 36.0118835,26.3793309 36.0118835,27.0937016 L36.0118835,37.4425527 C36.0118835,38.1569234 35.7647059,38.7617574 35.2703506,39.2570544 C34.7759952,39.7523515 34.1723113,40 33.4592989,40 L23.1681521,40 C22.4551396,40 21.8467023,39.7523515 21.3380867,39.2570544 C20.8294712,38.7617574 20.5775401,38.1569234 20.5775401,37.4425527 L20.5775401,27.0889392 C20.5775401,26.3745684 20.8294712,25.7697345 21.3380867,25.2744374 C21.8467023,24.7791404 22.4551396,24.5314918 23.1681521,24.5314918 L33.4592989,24.5314918 L33.4592989,24.5362543 Z M39.1776589,8.45338731 C39.7243018,9.00107156 40,9.64876771 40,10.3917133 C40,11.1346589 39.7243018,11.7633052 39.1776589,12.287177 L31.5199049,19.959519 C30.973262,20.5072032 30.3315508,20.7834266 29.6042781,20.7834266 C28.8770053,20.7834266 28.2400475,20.5072032 27.6886512,19.959519 L20.040404,12.2919395 C19.5175282,11.7680676 19.2560903,11.1394214 19.2560903,10.3964758 C19.2560903,9.65353018 19.5175282,9.00583403 20.040404,8.45814978 L27.6981581,0.785807834 C28.244801,0.261935945 28.8865122,0 29.6137849,0 C30.3410576,0 30.9780154,0.261935945 31.5294118,0.785807834 L39.1776589,8.45338731 L39.1776589,8.45338731 Z" id="path-1"></path>
    </defs>
    <g id="推送" stroke="none" stroke-width="1" fill="none" fill-rule="evenodd">
        <g id="安卓_toast提示" transform="translate(-352, -1518)">
            <g id="编组-12" transform="translate(0, 1490)">
                <g id="容器-106" transform="translate(326, 24)">
                    <g id="编组-8" transform="translate(26, 4)">
                        <g id="椭圆形" transform="translate(4, 4)">
                            <mask id="mask-2" fill="white">
                                <use xlink:href="#path-1"></use>
                            </mask>
                            <use id="蒙版" fill="#ADC1D1" fill-rule="nonzero" xlink:href="#path-1"></use>
                        </g>
                    </g>
                </g>
            </g>
        </g>
    </g>
</svg>